<?xml version="1.0" encoding="utf-8"?>
<!-- Generator: Adobe Illustrator 22.0.1, SVG Export Plug-In . SVG Version: 6.00 Build 0)  -->
<svg version="1.1" id="Layer_1" xmlns="http://www.w3.org/2000/svg" xmlns:xlink="http://www.w3.org/1999/xlink" x="0px" y="0px"
	 viewBox="0 0 612 792" style="enable-background:new 0 0 612 792;" xml:space="preserve">
<style type="text/css">
	.st0{fill:url(#SVGID_1_);}
	.st1{fill:url(#SVGID_2_);}
	.st2{fill:url(#SVGID_3_);}
	.st3{fill:#3D393A;}
	.st4{fill:url(#SVGID_4_);}
	.st5{fill:url(#SVGID_5_);}
	.st6{fill:#FFFFFF;}
	.st7{fill:url(#SVGID_6_);}
	.st8{fill:url(#SVGID_7_);}
	.st9{fill:url(#SVGID_8_);}
	.st10{fill:url(#SVGID_9_);}
	.st11{fill:none;stroke:url(#SVGID_10_);stroke-miterlimit:10;}
	.st12{fill:url(#SVGID_11_);}
	.st13{fill:url(#SVGID_12_);}
	.st14{fill:url(#SVGID_13_);}
	.st15{fill:url(#SVGID_14_);}
	.st16{fill:url(#SVGID_15_);}
	.st17{fill:url(#SVGID_16_);}
	.st18{fill:url(#SVGID_17_);}
	.st19{fill:url(#SVGID_18_);}
	.st20{fill:url(#SVGID_19_);}
	.st21{fill:url(#SVGID_20_);}
	.st22{fill:url(#SVGID_21_);}
	.st23{fill:none;stroke:url(#SVGID_22_);stroke-miterlimit:10;}
	.st24{fill:url(#SVGID_23_);}
	.st25{fill:url(#SVGID_24_);}
	.st26{fill:url(#SVGID_25_);}
	.st27{fill:url(#SVGID_26_);}
</style>
<g>
	
		<linearGradient id="SVGID_1_" gradientUnits="userSpaceOnUse" x1="243.0701" y1="138.3452" x2="339.9561" y2="313.2321" gradientTransform="matrix(0.9977 6.709917e-02 -6.709917e-02 0.9977 26.5949 -20.9212)">
		<stop  offset="0" style="stop-color:#EDFFFF"/>
		<stop  offset="0.2804" style="stop-color:#B0FFE8"/>
		<stop  offset="0.9958" style="stop-color:#3FF1FF"/>
	</linearGradient>
	<path class="st0" d="M332.4,297.4c0,0,0,0-25.6,14.3c-51.6-62.1-83.1-111.7-100.7-145.7c-0.5-0.9-0.9-1.8-1.4-2.7
		c-12-23.7-17-39.5-17.2-46.2c-0.3-10.1,50.3-7.8,92.2,1.3c1,0.2,2,0.4,3,0.6c25,5.7,46.4,13.9,50.8,23.4c1.3,2.9,2.4,7,3.1,12.1
		c0.2,1.1,0.3,2.3,0.5,3.5C342,200.8,332.4,297.4,332.4,297.4z"/>
	
		<linearGradient id="SVGID_2_" gradientUnits="userSpaceOnUse" x1="231.9921" y1="156.9414" x2="313.9058" y2="332.8867" gradientTransform="matrix(0.9977 6.709917e-02 -6.709917e-02 0.9977 26.5949 -20.9212)">
		<stop  offset="0" style="stop-color:#EDFFFF"/>
		<stop  offset="0.5362" style="stop-color:#B0FFE8"/>
		<stop  offset="0.9968" style="stop-color:#55FFF7"/>
	</linearGradient>
	<path class="st1" d="M308.7,305l-2.8,1l-40.8-110.4c-12.3-10.3-44.8-33.7-59.1-29.7c-0.5-0.9-0.9-1.8-1.4-2.7
		c16.5-5.3,51,21,60.3,28.5c0.3-5.6,1.2-18.5,3.8-33.7c2.9-16.6,6.8-29.6,10.8-39.7c1,0.2,2,0.4,3,0.6c-13,32.2-14.6,71.8-14.7,75.5
		L308.7,305z"/>
	
		<linearGradient id="SVGID_3_" gradientUnits="userSpaceOnUse" x1="306.1324" y1="182.2007" x2="320.584" y2="279.6242" gradientTransform="matrix(0.9977 6.709917e-02 -6.709917e-02 0.9977 26.5949 -20.9212)">
		<stop  offset="0" style="stop-color:#EDFFFF"/>
		<stop  offset="0.5362" style="stop-color:#B0FFE8"/>
		<stop  offset="0.9968" style="stop-color:#55FFF7"/>
	</linearGradient>
	<path class="st2" d="M321.9,297.8l-2.9,0.7c-0.1-0.2-5.7-23.3-10.2-47.6c-6.2-33.4-7.4-52.3-3.6-57.7c1.2-1.6,2.4-3.5,3.8-5.6
		c6.8-10.1,16.4-24.2,27.5-33.2c0.2,1.1,0.3,2.3,0.5,3.5c-10.1,8.7-19,21.8-25.4,31.3c-1.4,2.1-2.7,4-3.9,5.7
		C301.7,203.4,313,261.1,321.9,297.8z"/>
	<path class="st3" d="M545.7,290.3c-16,0.7-33.6-13.1-72.5,9.9c-9.6,5.7-20.5,13.6-33.1,24.5c0,0-9.1-2.2-5.5-7.8
		c1.5-2.4,10.6-15.3,23.8-29.3c17.7-18.8,42.8-39.4,66.9-38.4C567.3,251,565.7,289.4,545.7,290.3z"/>
	
		<linearGradient id="SVGID_4_" gradientUnits="userSpaceOnUse" x1="257.7492" y1="340.4398" x2="414.7246" y2="552.4984" gradientTransform="matrix(0.9977 6.709917e-02 -6.709917e-02 0.9977 26.5949 -20.9212)">
		<stop  offset="0" style="stop-color:#FFEB00"/>
		<stop  offset="0.9979" style="stop-color:#FFC42A"/>
	</linearGradient>
	<path class="st4" d="M532,432.8c-13.8,40.5-72.2,86.8-122.4,114c-11.2,6.1-22.6,11.5-33.7,16.3l0,0c-21,8.9-41.5,15.3-59.2,18.3
		c-4.1,0.7-8,1.2-11.8,1.5c-17.2,1.5-30.2,2-42.4,4.6c-10.6,2.2-20.6,5.9-32.2,13l0,0c-0.4,0.2-0.7,0.5-1.1,0.7
		c-12.2,7.6-11.4,11.5-27.7,5.3c-12-4.6-22.8-17.1-27.7-28.4c-2.3-5.3-4.4-10.7-6.2-16c-10.1-29.9-12-59.5-7.4-87.6
		c6-36.5,22.8-70.5,46.6-99c0.2-0.2,0.3-0.4,0.4-0.5c15.9-18.9,30.5-34.2,45.2-46.5c25.4-21.3,51.1-33.8,84.5-41.1
		c16.9-3.7,38-7.5,59.7-6.1c27.1,1.8,62.2,15.5,69.1,20.5C507.9,332.2,547.1,388.5,532,432.8z"/>
	
		<linearGradient id="SVGID_5_" gradientUnits="userSpaceOnUse" x1="408.638" y1="408.9917" x2="489.5435" y2="408.9917" gradientTransform="matrix(0.9977 6.709917e-02 -6.709917e-02 0.9977 26.5949 -20.9212)">
		<stop  offset="0" style="stop-color:#292929"/>
		<stop  offset="0.9979" style="stop-color:#000000"/>
	</linearGradient>
	<path class="st5" d="M484.9,429.4c-8.8,27.4-32.8,44.2-53.6,37.5s-30.6-34.3-21.8-61.7c8.8-27.4,32.8-44.2,53.6-37.5
		S493.7,402,484.9,429.4z"/>
	
		<ellipse transform="matrix(1.928070e-02 -0.9998 0.9998 1.928070e-02 51.4466 855.4319)" class="st6" cx="461.8" cy="401.5" rx="18.3" ry="14.5"/>
	<path class="st3" d="M491.1,225c-15.4,9.4-40.3,5.4-66.2,49c-6.4,10.8-12.9,24.6-19.3,42.2c0,0-10.2,2.7-9.7-4.7
		c0.2-3.2,2.1-20.9,7.6-41.8c7.3-28.1,21-62.1,45.3-74.2C491.1,174.4,510.4,213.3,491.1,225z"/>
	<g>
		
			<linearGradient id="SVGID_6_" gradientUnits="userSpaceOnUse" x1="248.351" y1="422.934" x2="420.2519" y2="422.934" gradientTransform="matrix(0.9977 6.709917e-02 -6.709917e-02 0.9977 26.5949 -20.9212)">
			<stop  offset="0" style="stop-color:#292929"/>
			<stop  offset="0.9979" style="stop-color:#000000"/>
		</linearGradient>
		<path class="st7" d="M336.9,287.2c-33.4,7.3-59.1,19.8-84.5,41.1c-15.9,127.4,84,208.2,123.5,234.8l0,0
			c11.2-4.8,22.5-10.2,33.7-16.3C286.7,441.6,321.7,323.8,336.9,287.2z"/>
		
			<linearGradient id="SVGID_7_" gradientUnits="userSpaceOnUse" x1="166.4519" y1="487.239" x2="329.8719" y2="487.239" gradientTransform="matrix(0.9977 6.709917e-02 -6.709917e-02 0.9977 26.5949 -20.9212)">
			<stop  offset="0" style="stop-color:#292929"/>
			<stop  offset="0.9979" style="stop-color:#000000"/>
		</linearGradient>
		<path class="st8" d="M206.7,375.4c-23.8,28.5-40.7,62.4-46.6,99c22.9,58,42.4,74.3,102.4,113.1c12.2-2.5,25.1-3.1,42.4-4.6
			c3.8-0.3,7.7-0.8,11.8-1.5C204.1,503.4,198.7,426.4,206.7,375.4z"/>
		
			<linearGradient id="SVGID_8_" gradientUnits="userSpaceOnUse" x1="179.7319" y1="594.2787" x2="244.9119" y2="594.2787" gradientTransform="matrix(0.9977 6.709917e-02 -6.709917e-02 0.9977 26.5949 -20.9212)">
			<stop  offset="0" style="stop-color:#292929"/>
			<stop  offset="0.9979" style="stop-color:#000000"/>
		</linearGradient>
		<path class="st9" d="M167.5,562c1.8,5.3,3.9,10.7,6.2,16c5,11.3,15.7,23.8,27.7,28.4c16.3,6.2,15.5,2.3,27.7-5.3
			c0.4-0.2,0.7-0.5,1.1-0.7C186.7,597.3,167.5,562,167.5,562z"/>
	</g>
	
		<linearGradient id="SVGID_9_" gradientUnits="userSpaceOnUse" x1="49.5419" y1="304.1251" x2="280.9919" y2="304.1251" gradientTransform="matrix(0.9977 6.709917e-02 -6.709917e-02 0.9977 26.5949 -20.9212)">
		<stop  offset="0" style="stop-color:#EDFFFF"/>
		<stop  offset="0.2804" style="stop-color:#B0FFE8"/>
		<stop  offset="0.9958" style="stop-color:#3FF1FF"/>
	</linearGradient>
	<path class="st10" d="M283.5,346L283.5,346c-1.3,0.2-2.6,0.4-3.9,0.5c-74.9,9.4-131.1,7-169,1.5c-1-0.1-2-0.3-3-0.4
		c-29.5-4.5-47.3-10.8-53.5-14.5c-9.5-5.6,26-49.8,58.9-77.6c0.8-0.7,1.6-1.3,2.3-1.9c15.6-12.9,30.5-21.8,39.3-20.6
		c5.6,0.7,14.1,4.5,24.3,10.1c1.1,0.6,2.3,1.3,3.4,1.9l0,0c40.7,23.3,102.7,71.8,102.7,71.8s0,0-0.7,12.3c-0.1,1-0.1,2-0.2,3.2
		c-0.2,3.3-0.4,7.3-0.7,12.3C283.6,344.9,283.6,345.5,283.5,346z"/>
	<g>
		
			<linearGradient id="SVGID_10_" gradientUnits="userSpaceOnUse" x1="104.8819" y1="315.109" x2="280.9919" y2="315.109" gradientTransform="matrix(0.9977 6.709917e-02 -6.709917e-02 0.9977 26.5949 -20.9212)">
			<stop  offset="0" style="stop-color:#EDFFFF"/>
			<stop  offset="0.5362" style="stop-color:#B0FFE8"/>
			<stop  offset="0.9968" style="stop-color:#55FFF7"/>
		</linearGradient>
		<path style="fill:url(#SVGID_10_);" d="M283.6,344.5l-113.3-31.3c-3.1-2.4-36.7-28.7-54.9-59.7c-0.8,0.6-1.5,1.3-2.3,1.9
			c8.2,13.8,19.1,26.4,28.2,35.6c10.8,11,20.7,19.3,25.1,22.8c-11.9,3.3-55.2,16.5-58.7,33.7c1,0.1,2,0.3,3,0.4
			c3.1-14.4,42.9-27.7,59-31.9c0,0,0,0,0,0l110,30.4c1.3-0.2,2.6-0.3,3.9-0.5l0,0C283.6,345.5,283.6,344.9,283.6,344.5z"/>
		
			<linearGradient id="SVGID_11_" gradientUnits="userSpaceOnUse" x1="169.8319" y1="294.049" x2="280.8519" y2="294.049" gradientTransform="matrix(0.9977 6.709917e-02 -6.709917e-02 0.9977 26.5949 -20.9212)">
			<stop  offset="0" style="stop-color:#EDFFFF"/>
			<stop  offset="0.5362" style="stop-color:#B0FFE8"/>
			<stop  offset="0.9968" style="stop-color:#55FFF7"/>
		</linearGradient>
		<path class="st12" d="M191.2,282.1c4.8,13.9,82.4,45.7,93.1,50.1c0.1-1.1,0.1-2.2,0.2-3.2c-25.2-10.2-86.8-37.2-90.5-47.9
			c-0.7-1.9-1.5-4.1-2.3-6.5c-3.1-8.4-7-19.2-9.2-29.8l0,0c-1.2-0.7-2.3-1.3-3.4-1.9c2.1,11.7,6.5,23.7,9.8,32.8
			C189.8,278.1,190.5,280.2,191.2,282.1z"/>
	</g>
</g>
</svg>
